<svg width="256" height="128" viewBox="0 0 256 128" fill="none" xmlns="http://www.w3.org/2000/svg">
<g id="Maroof logo type -- Gold">
<g id="Group 12 Copy 9">
<path id="Fill 1" fill-rule="evenodd" clip-rule="evenodd" d="M4.83659 123.535L15.7179 97.5089L1.99219 88.1531C15.719 78.6899 44.8889 69.6761 69.4132 66.668V103.642C44.7175 106.249 20.4826 116.531 4.83659 123.535" fill="url(#paint0_linear_124013_91987)"/>
<path id="Fill 3" fill-rule="evenodd" clip-rule="evenodd" d="M27.4141 95.2856L68.3088 103.463V78.9316L27.4141 95.2856Z" fill="#C17B00"/>
<g id="Group 7">
<mask id="mask0_124013_91987" style="mask-type:alpha" maskUnits="userSpaceOnUse" x="186" y="66" width="69" height="58">
<path id="Clip 6" fill-rule="evenodd" clip-rule="evenodd" d="M186.586 66.6582H254.007V123.525H186.586V66.6582Z" fill="white"/>
</mask>
<g mask="url(#mask0_124013_91987)">
<path id="Fill 5" fill-rule="evenodd" clip-rule="evenodd" d="M252.507 123.525L241.625 97.4992L255.351 88.1433C241.624 78.6801 212.455 69.6664 187.93 66.6582V103.633C212.626 106.239 236.86 116.522 252.507 123.525" fill="url(#paint1_linear_124013_91987)"/>
</g>
</g>
<path id="Fill 8" fill-rule="evenodd" clip-rule="evenodd" d="M228.574 95.2856L187.68 103.463V78.9316L228.574 95.2856Z" fill="#C17B00"/>
<path id="Fill 10" fill-rule="evenodd" clip-rule="evenodd" d="M228.56 56.3111C207.375 48.1381 172.544 37.676 128.547 37.6738C84.5375 37.6717 49.6953 48.137 28.5078 56.3111V95.6561C48.2693 87.1146 83.3526 74.9457 128.547 74.9479C173.727 74.9506 208.8 87.1151 228.56 95.6561V56.3111Z" fill="url(#paint2_linear_124013_91987)"/>
</g>
<g id="Artboard 35 Copy">
<ellipse id="Oval" cx="128.549" cy="64.9902" rx="62.4474" ry="63" fill="#E6E6E6"/>
<path id="Shape" fill-rule="evenodd" clip-rule="evenodd" d="M71.9947 40.2472C81.6617 16.9628 104.294 1.85835 129.316 1.9911V2.04574C163.333 2.13616 190.845 30.0139 190.785 64.3321C190.785 89.5765 175.694 112.329 152.563 121.958C129.432 131.588 102.828 126.194 85.1811 108.297C67.534 90.3992 62.3276 63.5316 71.9947 40.2472ZM161.608 78.651C160.741 80.6894 159.67 82.6336 158.413 84.4535C158.034 85.0435 157.644 85.6118 157.232 86.18C154.432 89.9283 150.928 93.0844 146.921 95.4683L146.639 95.6431C146.511 95.7192 146.285 95.814 145.977 95.9428C145.709 96.0545 145.381 96.1917 145.003 96.3644C144.692 96.5068 144.349 96.6767 143.99 96.8541C143.413 97.1392 142.797 97.4441 142.209 97.6866C137.904 99.4367 133.3 100.317 128.659 100.276H128.334C128.172 100.276 127.915 100.236 127.572 100.182L127.571 100.182C127.201 100.123 126.729 100.049 126.167 99.9923C124.699 99.7927 123.25 99.4711 121.835 99.0306C121.667 98.9822 121.492 98.9203 121.316 98.8581L121.316 98.8579L121.315 98.8578C121.174 98.8078 121.032 98.7575 120.892 98.7138C122.299 97.0215 123.476 95.1473 124.391 93.1408C125.873 93.4007 127.372 93.5541 128.875 93.5997C129.525 93.5997 130.186 93.5997 130.836 93.5232C131.486 93.4467 132.092 93.4358 132.645 93.4358C135.049 93.1414 137.407 92.543 139.663 91.6546C140.934 91.1528 142.172 90.5688 143.368 89.9062C143.628 89.7642 143.877 89.6112 144.126 89.4582C144.549 89.196 144.971 88.9228 145.372 88.6277C145.729 88.3649 145.983 88.1975 146.256 88.0172L146.256 88.0171L146.357 87.9502C147.868 86.8322 149.268 85.5697 150.538 84.1803L150.658 84.0601C150.75 83.9563 150.839 83.847 150.928 83.7377C151.018 83.6284 151.107 83.5192 151.199 83.4154C152.172 82.2606 153.053 81.0292 153.831 79.7328C155.579 76.7813 156.817 73.5519 157.492 70.1822C158.164 66.8085 158.23 63.3405 157.687 59.9432C157.135 56.443 155.965 53.0712 154.232 49.9883C152.249 46.6029 149.638 43.6347 146.542 41.2464C143.601 38.9689 140.239 37.3081 136.652 36.3618C133.403 35.5063 130.035 35.2071 126.687 35.4767L125.929 35.5969C122.498 36.0297 119.171 37.0769 116.105 38.6894C113.086 40.2478 110.367 42.3388 108.079 44.8634C105.809 47.3834 103.978 50.2726 102.663 53.4086C102.663 53.4769 102.621 53.5452 102.578 53.6135C102.553 53.6545 102.527 53.6955 102.511 53.7364C102.491 53.8038 102.465 53.8695 102.435 53.9331C101.836 55.4886 101.372 57.0937 101.049 58.7303C100.354 62.1546 100.255 65.6747 100.756 69.1332C101.247 72.6791 102.437 76.0899 104.255 79.1646L104.342 79.3066C104.872 80.0024 105.059 80.9047 104.848 81.7563C104.637 82.608 104.051 83.3157 103.259 83.6776C102.517 84.1706 101.596 84.3067 100.746 84.0491C99.8872 83.7717 99.1664 83.1735 98.731 82.3772C93.1503 72.5204 92.5471 60.5739 97.1062 50.1959C98.1473 47.8824 99.4251 45.685 100.919 43.6395L101.244 43.1696C104.021 39.3572 107.569 36.1837 111.653 33.8594C118.761 29.5796 127.159 28.0277 135.309 29.4885C140.764 30.3586 145.924 32.5689 150.333 35.9247L150.723 36.1979C153.473 38.2765 155.888 40.772 157.882 43.5958C159.648 45.9973 161.103 48.6154 162.215 51.387C163.954 55.7065 164.792 60.3418 164.674 65.0026C164.596 69.6889 163.621 74.3159 161.803 78.6291L161.608 78.651ZM123.242 64.3523C123.242 61.0209 125.919 58.3203 129.221 58.3203C132.523 58.3203 135.2 61.0209 135.2 64.3523C135.2 67.6836 132.523 70.3842 129.221 70.3842C125.922 70.3782 123.248 67.6811 123.242 64.3523Z" fill="#E6E6E6"/>
<g id="Shape 2">
<path id="Shape_2" fill-rule="evenodd" clip-rule="evenodd" d="M100.959 14.8331C107.436 11.0398 114.592 8.574 122.016 7.5773C124.369 7.2678 126.738 7.11085 129.111 7.10742C134.188 7.11039 139.241 7.8051 144.134 9.17271C151.369 11.2336 158.161 14.6354 164.162 19.2041C170.129 23.7788 175.08 29.5633 178.698 36.1853C182.392 42.7862 184.807 50.0363 185.814 57.5485C186.77 65.0341 186.225 72.6371 184.211 79.906C181.013 92.103 173.817 102.849 163.793 110.394C161.838 111.926 159.791 113.335 157.663 114.612C157.392 114.775 156.612 115.234 154.348 116.327C152.2 117.339 149.981 118.19 147.709 118.873C144.488 119.862 141.206 120.632 137.884 121.179C135.198 121.649 128.959 121.966 128.959 121.966C148.973 105.292 152.982 99.2351 158.317 91.1748C158.849 90.3712 159.394 89.5476 159.97 88.6916C162.901 84.5544 165.126 79.9526 166.555 75.0761C168.009 70.117 168.422 64.9068 167.769 59.7777C167.081 54.6768 165.426 49.7572 162.894 45.2879C160.395 40.7879 157.002 36.856 152.929 33.7376C148.865 30.6156 144.237 28.3218 139.303 26.9844C129.399 24.2301 118.813 25.6208 109.939 30.8418C105.407 33.3887 101.458 36.87 98.349 41.059C95.3836 45.0915 93.1704 49.6349 91.8176 54.4669C89.0602 64.4886 90.3779 75.2058 95.4787 84.2442C96.3825 85.8163 97.8407 86.9869 99.5622 87.5224C101.387 88.0742 103.358 87.8116 104.978 86.8012C106.518 85.964 107.664 84.5421 108.162 82.8501C108.66 81.1581 108.469 79.3356 107.632 77.7861L107.372 77.3053C105.798 74.6528 104.763 71.7108 104.328 68.6507C103.888 65.6212 103.973 62.5377 104.577 59.5372C105.164 56.6069 106.264 53.8056 107.827 51.2652C109.429 48.6736 111.475 46.3906 113.871 44.523L113.979 44.4355C114.32 44.1367 114.682 43.8628 115.062 43.616L116.611 42.6871C119.504 40.9191 122.74 39.8009 126.1 39.4089C129.362 39.0163 132.669 39.2461 135.848 40.0864C138.972 40.9496 141.893 42.4359 144.437 44.4574C147.129 46.5559 149.401 49.1518 151.131 52.1066C152.635 54.8172 153.644 57.7781 154.11 60.8485C154.571 63.8243 154.497 66.8594 153.893 69.809C153.292 72.7727 152.193 75.6109 150.644 78.2013C149.078 80.7867 147.059 83.0637 144.687 84.9217C144.534 85.0279 144.364 85.1449 144.189 85.2649C143.808 85.5275 143.406 85.8044 143.116 86.0144C142.694 86.3204 142.228 86.6264 141.827 86.8668C136.755 89.8295 130.811 90.8936 125.038 89.8718L122.449 89.4238L121.247 91.7732C119.704 94.7182 117.564 97.3022 114.965 99.3568L114.802 99.4989C114.525 99.7441 114.224 99.9601 113.903 100.144L112.365 101.072C109.663 102.7 106.665 103.762 103.548 104.198C100.46 104.618 97.3221 104.492 94.2764 103.826C91.2904 103.166 88.4562 101.938 85.9252 100.209C83.3735 98.4668 81.2445 96.1659 79.697 93.4779C72.2442 80.2001 70.2974 64.4881 74.2813 49.7681C76.2595 42.585 79.5672 35.8444 84.0297 29.902C88.5992 23.7706 94.3597 18.6432 100.959 14.8331ZM121.103 69.3293C122.25 71.5772 124.317 73.2034 126.757 73.7767H126.638C127.477 73.9918 128.34 74.1019 129.205 74.1046C130.71 74.1048 132.194 73.7493 133.538 73.0665L133.755 72.9463C134.279 72.6381 134.751 72.2471 135.152 71.788C138.459 68.9017 139.356 64.0966 137.318 60.194L137.199 59.9754C134.514 55.5812 128.857 54.1302 124.418 56.6972L123.714 57.1124L123.27 57.4402C121.567 58.8378 120.415 60.8023 120.02 62.9804C119.595 65.1591 119.981 67.4195 121.103 69.3293Z" fill="url(#paint3_linear_124013_91987)"/>
<mask id="mask1_124013_91987" style="mask-type:alpha" maskUnits="userSpaceOnUse" x="72" y="7" width="115" height="115">
<path id="Shape_3" fill-rule="evenodd" clip-rule="evenodd" d="M100.959 14.8331C107.436 11.0398 114.592 8.574 122.016 7.5773C124.369 7.2678 126.738 7.11085 129.111 7.10742C134.188 7.11039 139.241 7.8051 144.134 9.17271C151.369 11.2336 158.161 14.6354 164.162 19.2041C170.129 23.7788 175.08 29.5633 178.698 36.1853C182.392 42.7862 184.807 50.0363 185.814 57.5485C186.77 65.0341 186.225 72.6371 184.211 79.906C181.013 92.103 173.817 102.849 163.793 110.394C161.838 111.926 159.791 113.335 157.663 114.612C157.392 114.775 156.612 115.234 154.348 116.327C152.2 117.339 149.981 118.19 147.709 118.873C144.488 119.862 141.206 120.632 137.884 121.179C135.198 121.649 128.959 121.966 128.959 121.966C148.973 105.292 152.982 99.2351 158.317 91.1748C158.849 90.3712 159.394 89.5476 159.97 88.6916C162.901 84.5544 165.126 79.9526 166.555 75.0761C168.009 70.117 168.422 64.9068 167.769 59.7777C167.081 54.6768 165.426 49.7572 162.894 45.2879C160.395 40.7879 157.002 36.856 152.929 33.7376C148.865 30.6156 144.237 28.3218 139.303 26.9844C129.399 24.2301 118.813 25.6208 109.939 30.8418C105.407 33.3887 101.458 36.87 98.349 41.059C95.3836 45.0915 93.1704 49.6349 91.8176 54.4669C89.0602 64.4886 90.3779 75.2058 95.4787 84.2442C96.3825 85.8163 97.8407 86.9869 99.5622 87.5224C101.387 88.0742 103.358 87.8116 104.978 86.8012C106.518 85.964 107.664 84.5421 108.162 82.8501C108.66 81.1581 108.469 79.3356 107.632 77.7861L107.372 77.3053C105.798 74.6528 104.763 71.7108 104.328 68.6507C103.888 65.6212 103.973 62.5377 104.577 59.5372C105.164 56.6069 106.264 53.8056 107.827 51.2652C109.429 48.6736 111.475 46.3906 113.871 44.523L113.979 44.4355C114.32 44.1367 114.682 43.8628 115.062 43.616L116.611 42.6871C119.504 40.9191 122.74 39.8009 126.1 39.4089C129.362 39.0163 132.669 39.2461 135.848 40.0864C138.972 40.9496 141.893 42.4359 144.437 44.4574C147.129 46.5559 149.401 49.1518 151.131 52.1066C152.635 54.8172 153.644 57.7781 154.11 60.8485C154.571 63.8243 154.497 66.8594 153.893 69.809C153.292 72.7727 152.193 75.6109 150.644 78.2013C149.078 80.7867 147.059 83.0637 144.687 84.9217C144.534 85.0279 144.364 85.1449 144.189 85.2649C143.808 85.5275 143.406 85.8044 143.116 86.0144C142.694 86.3204 142.228 86.6264 141.827 86.8668C136.755 89.8295 130.811 90.8936 125.038 89.8718L122.449 89.4238L121.247 91.7732C119.704 94.7182 117.564 97.3022 114.965 99.3568L114.802 99.4989C114.525 99.7441 114.224 99.9601 113.903 100.144L112.365 101.072C109.663 102.7 106.665 103.762 103.548 104.198C100.46 104.618 97.3221 104.492 94.2764 103.826C91.2904 103.166 88.4562 101.938 85.9252 100.209C83.3735 98.4668 81.2445 96.1659 79.697 93.4779C72.2442 80.2001 70.2974 64.4881 74.2813 49.7681C76.2595 42.585 79.5672 35.8444 84.0297 29.902C88.5992 23.7706 94.3597 18.6432 100.959 14.8331ZM121.103 69.3293C122.25 71.5772 124.317 73.2034 126.757 73.7767H126.638C127.477 73.9918 128.34 74.1019 129.205 74.1046C130.71 74.1048 132.194 73.7493 133.538 73.0665L133.755 72.9463C134.279 72.6381 134.751 72.2471 135.152 71.788C138.459 68.9017 139.356 64.0966 137.318 60.194L137.199 59.9754C134.514 55.5812 128.857 54.1302 124.418 56.6972L123.714 57.1124L123.27 57.4402C121.567 58.8378 120.415 60.8023 120.02 62.9804C119.595 65.1591 119.981 67.4195 121.103 69.3293Z" fill="white"/>
</mask>
<g mask="url(#mask1_124013_91987)">
</g>
</g>
</g>
</g>
<defs>
<linearGradient id="paint0_linear_124013_91987" x1="52.6316" y1="-7.7808" x2="-56.5174" y2="60.4133" gradientUnits="userSpaceOnUse">
<stop stop-color="#FFCC4D"/>
<stop offset="0.0756761" stop-color="#FFD757"/>
<stop offset="0.107415" stop-color="#FCC94A"/>
<stop offset="0.11" stop-color="#F4BF40"/>
<stop offset="0.16" stop-color="#E6AE2F"/>
<stop offset="0.2" stop-color="#D29717"/>
<stop offset="0.293065" stop-color="#BF8000"/>
<stop offset="0.4604" stop-color="#CB9010"/>
<stop offset="0.581009" stop-color="#E7B838"/>
<stop offset="0.764784" stop-color="#FFD959"/>
<stop offset="1" stop-color="#F9D050"/>
<stop offset="1" stop-color="#FFF979"/>
</linearGradient>
<linearGradient id="paint1_linear_124013_91987" x1="161.427" y1="115.537" x2="247.182" y2="148.47" gradientUnits="userSpaceOnUse">
<stop stop-color="#E6AE2F"/>
<stop offset="0.0931993" stop-color="#D29717"/>
<stop offset="0.215107" stop-color="#BF8000"/>
<stop offset="0.3705" stop-color="#CB9010"/>
<stop offset="0.522208" stop-color="#E7B838"/>
<stop offset="0.688089" stop-color="#FFD051"/>
<stop offset="1" stop-color="#FFC545"/>
</linearGradient>
<linearGradient id="paint2_linear_124013_91987" x1="17.8154" y1="96.6716" x2="203.506" y2="162.84" gradientUnits="userSpaceOnUse">
<stop stop-color="#FFF979"/>
<stop offset="0.0805605" stop-color="#FFD959"/>
<stop offset="0.126866" stop-color="#F9D050"/>
<stop offset="0.187064" stop-color="#CD8F0F"/>
<stop offset="0.7387" stop-color="#BF8000"/>
<stop offset="0.790421" stop-color="#D29717"/>
<stop offset="0.843694" stop-color="#F4BF40"/>
<stop offset="0.887758" stop-color="#E6AE2F"/>
<stop offset="0.941369" stop-color="#FCC94A"/>
<stop offset="1" stop-color="#FFD757"/>
<stop offset="1" stop-color="#FFCC4D"/>
</linearGradient>
<linearGradient id="paint3_linear_124013_91987" x1="150.571" y1="137.837" x2="205.747" y2="42.8363" gradientUnits="userSpaceOnUse">
<stop stop-color="#2E3192"/>
<stop offset="1" stop-color="#4AA590"/>
</linearGradient>
</defs>
</svg>
